# xmcd
#
# Track frame offsets:
#	150
#	3005
#	13632
#	25890
#	41914
#	56305
#	61574
#	73590
#	83493
#	93747
#	100993
#	111631
#	123224
#	133535
#	143145
#	159344
#	165931
#	179987
#
# Disc length: 2486 seconds
#
# Revision: 1
# Processed by: cddbd v1.5.1PL0 Copyright (c) Steve Scherf et al.
# Submitted via: audiograbber 1.83.01
#
DISCID=e509b412
DTITLE=Sourdough Slim - Six-Guns 'n Sage
DYEAR=2004
DGENRE=Country
TTITLE0=Dallas
TTITLE1=I Like The Desert In The Fall
TTITLE2=Westbound Freight
TTITLE3=Gambling Bar Room Blues
TTITLE4=Yodelin' Bill
TTITLE5=Panaminit Polka
TTITLE6=Frankie and Johnny
TTITLE7=Red Rock, Juniper, And Sage
TTITLE8=Ridin' Down The Trail To Albuquerque
TTITLE9=Californio!
TTITLE10=Cowhand's Last Ride
TTITLE11=Wahoo!
TTITLE12=In Old California
TTITLE13=I Want My Boots On When I Die
TTITLE14=Barnacle Bill
TTITLE15=Cowboy Waltz
TTITLE16=Ghost Riders In The Sky
TTITLE17=Dallas
EXTD=http://www.sourdoughslim.com
EXTT0=
EXTT1=
EXTT2=
EXTT3=
EXTT4=
EXTT5=
EXTT6=
EXTT7=
EXTT8=
EXTT9=
EXTT10=
EXTT11=
EXTT12=
EXTT13=
EXTT14=
EXTT15=
EXTT16=
EXTT17=
PLAYORDER=
